<mxfile host="app.diagrams.net" modified="2020-10-23T21:43:33.362Z" agent="5.0 (Windows NT 10.0; Win64; x64) AppleWebKit/537.36 (KHTML, like Gecko) Chrome/86.0.4240.111 Safari/537.36" etag="p9nm5N6xGuNLJBgTZQbW" version="13.8.1" type="github">
  <diagram id="dHKd6oaxylC4IjEqQSnI" name="Page-1">
    <mxGraphModel dx="1386" dy="797" grid="1" gridSize="10" guides="1" tooltips="1" connect="1" arrows="1" fold="1" page="1" pageScale="1" pageWidth="850" pageHeight="1100" math="0" shadow="0">
      <root>
        <mxCell id="0" />
        <mxCell id="1" parent="0" />
        <mxCell id="vbWQuOqUbt5fFH2tdPau-12" value="" style="edgeStyle=orthogonalEdgeStyle;rounded=0;orthogonalLoop=1;jettySize=auto;html=1;" edge="1" parent="1" source="vbWQuOqUbt5fFH2tdPau-1" target="vbWQuOqUbt5fFH2tdPau-10">
          <mxGeometry relative="1" as="geometry" />
        </mxCell>
        <mxCell id="vbWQuOqUbt5fFH2tdPau-1" value="" style="ellipse;html=1;shape=endState;fillColor=#000000;strokeColor=#ff0000;" vertex="1" parent="1">
          <mxGeometry x="472.5" y="10" width="30" height="30" as="geometry" />
        </mxCell>
        <mxCell id="vbWQuOqUbt5fFH2tdPau-9" style="edgeStyle=orthogonalEdgeStyle;rounded=0;orthogonalLoop=1;jettySize=auto;html=1;exitX=0.5;exitY=0;exitDx=0;exitDy=0;" edge="1" parent="1" source="vbWQuOqUbt5fFH2tdPau-4">
          <mxGeometry relative="1" as="geometry">
            <mxPoint x="488" y="190" as="targetPoint" />
          </mxGeometry>
        </mxCell>
        <mxCell id="vbWQuOqUbt5fFH2tdPau-4" value="Eligible to vote and Certification Envelope B has your name on it" style="rhombus;whiteSpace=wrap;html=1;fillColor=#ffffc0;strokeColor=#ff0000;" vertex="1" parent="1">
          <mxGeometry x="415" y="160" width="145" height="150" as="geometry" />
        </mxCell>
        <mxCell id="vbWQuOqUbt5fFH2tdPau-5" value="no" style="edgeStyle=orthogonalEdgeStyle;html=1;align=left;verticalAlign=bottom;endArrow=open;endSize=8;strokeColor=#ff0000;" edge="1" source="vbWQuOqUbt5fFH2tdPau-4" parent="1">
          <mxGeometry x="-1" relative="1" as="geometry">
            <mxPoint x="620" y="265" as="targetPoint" />
          </mxGeometry>
        </mxCell>
        <mxCell id="vbWQuOqUbt5fFH2tdPau-6" value="yes" style="edgeStyle=orthogonalEdgeStyle;html=1;align=left;verticalAlign=top;endArrow=open;endSize=8;strokeColor=#ff0000;entryX=0.5;entryY=0;entryDx=0;entryDy=0;" edge="1" source="vbWQuOqUbt5fFH2tdPau-4" parent="1" target="vbWQuOqUbt5fFH2tdPau-20">
          <mxGeometry x="-1" relative="1" as="geometry">
            <mxPoint x="488" y="460" as="targetPoint" />
          </mxGeometry>
        </mxCell>
        <mxCell id="vbWQuOqUbt5fFH2tdPau-13" value="" style="edgeStyle=orthogonalEdgeStyle;rounded=0;orthogonalLoop=1;jettySize=auto;html=1;" edge="1" parent="1" source="vbWQuOqUbt5fFH2tdPau-10" target="vbWQuOqUbt5fFH2tdPau-4">
          <mxGeometry relative="1" as="geometry" />
        </mxCell>
        <mxCell id="vbWQuOqUbt5fFH2tdPau-10" value="Read all the instruction" style="rounded=1;whiteSpace=wrap;html=1;" vertex="1" parent="1">
          <mxGeometry x="427.5" y="70" width="120" height="60" as="geometry" />
        </mxCell>
        <mxCell id="vbWQuOqUbt5fFH2tdPau-14" value="contact Election BC" style="rounded=1;whiteSpace=wrap;html=1;" vertex="1" parent="1">
          <mxGeometry x="620" y="240" width="120" height="60" as="geometry" />
        </mxCell>
        <mxCell id="vbWQuOqUbt5fFH2tdPau-20" value="Register to vote or update your information" style="rhombus;whiteSpace=wrap;html=1;fillColor=#ffffc0;strokeColor=#ff0000;" vertex="1" parent="1">
          <mxGeometry x="387.5" y="350" width="200" height="140" as="geometry" />
        </mxCell>
        <mxCell id="vbWQuOqUbt5fFH2tdPau-21" value="no" style="edgeStyle=orthogonalEdgeStyle;html=1;align=left;verticalAlign=bottom;endArrow=open;endSize=8;strokeColor=#ff0000;" edge="1" source="vbWQuOqUbt5fFH2tdPau-20" parent="1" target="vbWQuOqUbt5fFH2tdPau-26">
          <mxGeometry x="-1" relative="1" as="geometry">
            <mxPoint x="488" y="600" as="targetPoint" />
          </mxGeometry>
        </mxCell>
        <mxCell id="vbWQuOqUbt5fFH2tdPau-22" value="yes" style="edgeStyle=orthogonalEdgeStyle;html=1;align=left;verticalAlign=top;endArrow=open;endSize=8;strokeColor=#ff0000;entryX=1;entryY=0.5;entryDx=0;entryDy=0;" edge="1" source="vbWQuOqUbt5fFH2tdPau-20" parent="1" target="vbWQuOqUbt5fFH2tdPau-25">
          <mxGeometry x="-1" relative="1" as="geometry">
            <mxPoint x="320" y="470" as="targetPoint" />
          </mxGeometry>
        </mxCell>
        <mxCell id="vbWQuOqUbt5fFH2tdPau-25" value="read the voter registration section" style="rounded=1;whiteSpace=wrap;html=1;" vertex="1" parent="1">
          <mxGeometry x="200" y="370" width="120" height="60" as="geometry" />
        </mxCell>
        <mxCell id="vbWQuOqUbt5fFH2tdPau-26" value="Requested your vote-by-mail package before candidate nomination closed" style="rhombus;whiteSpace=wrap;html=1;fillColor=#ffffc0;strokeColor=#ff0000;" vertex="1" parent="1">
          <mxGeometry x="387.5" y="520" width="201.25" height="130" as="geometry" />
        </mxCell>
        <mxCell id="vbWQuOqUbt5fFH2tdPau-27" value="no" style="edgeStyle=orthogonalEdgeStyle;html=1;align=left;verticalAlign=bottom;endArrow=open;endSize=8;strokeColor=#ff0000;entryX=1;entryY=0.5;entryDx=0;entryDy=0;" edge="1" source="vbWQuOqUbt5fFH2tdPau-26" parent="1" target="vbWQuOqUbt5fFH2tdPau-30">
          <mxGeometry x="-1" relative="1" as="geometry">
            <mxPoint x="488" y="760" as="targetPoint" />
          </mxGeometry>
        </mxCell>
        <mxCell id="vbWQuOqUbt5fFH2tdPau-28" value="yes" style="edgeStyle=orthogonalEdgeStyle;html=1;align=left;verticalAlign=top;endArrow=open;endSize=8;strokeColor=#ff0000;entryX=1;entryY=0.5;entryDx=0;entryDy=0;" edge="1" source="vbWQuOqUbt5fFH2tdPau-26" parent="1" target="vbWQuOqUbt5fFH2tdPau-29">
          <mxGeometry x="-1" relative="1" as="geometry">
            <mxPoint x="310" y="620" as="targetPoint" />
          </mxGeometry>
        </mxCell>
        <mxCell id="vbWQuOqUbt5fFH2tdPau-35" value="" style="edgeStyle=orthogonalEdgeStyle;rounded=0;orthogonalLoop=1;jettySize=auto;html=1;" edge="1" parent="1" source="vbWQuOqUbt5fFH2tdPau-29" target="vbWQuOqUbt5fFH2tdPau-34">
          <mxGeometry relative="1" as="geometry" />
        </mxCell>
        <mxCell id="vbWQuOqUbt5fFH2tdPau-29" value="write-in ballot" style="rounded=1;whiteSpace=wrap;html=1;" vertex="1" parent="1">
          <mxGeometry x="180" y="470" width="120" height="60" as="geometry" />
        </mxCell>
        <mxCell id="vbWQuOqUbt5fFH2tdPau-38" style="edgeStyle=orthogonalEdgeStyle;rounded=0;orthogonalLoop=1;jettySize=auto;html=1;entryX=1;entryY=0.5;entryDx=0;entryDy=0;" edge="1" parent="1" source="vbWQuOqUbt5fFH2tdPau-30" target="vbWQuOqUbt5fFH2tdPau-36">
          <mxGeometry relative="1" as="geometry" />
        </mxCell>
        <mxCell id="vbWQuOqUbt5fFH2tdPau-30" value="Mark your ballot in the circle next to the candidate of your choice." style="rounded=1;whiteSpace=wrap;html=1;" vertex="1" parent="1">
          <mxGeometry x="280" y="640" width="120" height="60" as="geometry" />
        </mxCell>
        <mxCell id="vbWQuOqUbt5fFH2tdPau-37" value="" style="edgeStyle=orthogonalEdgeStyle;rounded=0;orthogonalLoop=1;jettySize=auto;html=1;" edge="1" parent="1" source="vbWQuOqUbt5fFH2tdPau-34" target="vbWQuOqUbt5fFH2tdPau-36">
          <mxGeometry relative="1" as="geometry" />
        </mxCell>
        <mxCell id="vbWQuOqUbt5fFH2tdPau-34" value="&lt;span&gt;print the name of the candidate or party of your choice clearly in the white box&lt;/span&gt;" style="rounded=1;whiteSpace=wrap;html=1;" vertex="1" parent="1">
          <mxGeometry x="10" y="470" width="120" height="60" as="geometry" />
        </mxCell>
        <mxCell id="vbWQuOqUbt5fFH2tdPau-40" value="" style="edgeStyle=orthogonalEdgeStyle;rounded=0;orthogonalLoop=1;jettySize=auto;html=1;" edge="1" parent="1" source="vbWQuOqUbt5fFH2tdPau-36" target="vbWQuOqUbt5fFH2tdPau-39">
          <mxGeometry relative="1" as="geometry" />
        </mxCell>
        <mxCell id="vbWQuOqUbt5fFH2tdPau-36" value="Refold your ballot and put it in Secrecy Sleeve A" style="whiteSpace=wrap;html=1;rounded=1;" vertex="1" parent="1">
          <mxGeometry x="50" y="630" width="120" height="60" as="geometry" />
        </mxCell>
        <mxCell id="vbWQuOqUbt5fFH2tdPau-42" value="" style="edgeStyle=orthogonalEdgeStyle;rounded=0;orthogonalLoop=1;jettySize=auto;html=1;" edge="1" parent="1" source="vbWQuOqUbt5fFH2tdPau-39" target="vbWQuOqUbt5fFH2tdPau-41">
          <mxGeometry relative="1" as="geometry" />
        </mxCell>
        <mxCell id="vbWQuOqUbt5fFH2tdPau-39" value="Put Secrecy Sleeve A with you marked ballot in it into Certification Envelope B" style="whiteSpace=wrap;html=1;rounded=1;" vertex="1" parent="1">
          <mxGeometry x="50" y="770" width="140" height="70" as="geometry" />
        </mxCell>
        <mxCell id="vbWQuOqUbt5fFH2tdPau-44" style="edgeStyle=orthogonalEdgeStyle;rounded=0;orthogonalLoop=1;jettySize=auto;html=1;" edge="1" parent="1" source="vbWQuOqUbt5fFH2tdPau-41" target="vbWQuOqUbt5fFH2tdPau-43">
          <mxGeometry relative="1" as="geometry" />
        </mxCell>
        <mxCell id="vbWQuOqUbt5fFH2tdPau-41" value="Seal Certification Envelope B" style="whiteSpace=wrap;html=1;rounded=1;" vertex="1" parent="1">
          <mxGeometry x="250" y="770" width="120" height="60" as="geometry" />
        </mxCell>
        <mxCell id="vbWQuOqUbt5fFH2tdPau-43" value="" style="ellipse;html=1;shape=endState;fillColor=#000000;strokeColor=#ff0000;" vertex="1" parent="1">
          <mxGeometry x="500" y="785" width="30" height="30" as="geometry" />
        </mxCell>
      </root>
    </mxGraphModel>
  </diagram>
</mxfile>
